<?xml version="1.0" encoding="UTF-8" standalone="no"?>
<svg
   width="140"
   height="140"
   viewBox="0 0 140 140"
   version="1.1"
   id="svg1"
   xmlns="http://www.w3.org/2000/svg"
   xmlns:svg="http://www.w3.org/2000/svg">
  <g
     id="layer1"
     transform="translate(-104.775,-153.45833)">
    <path
       fill-rule="nonzero"
       fill="#b51f1f"
       fill-opacity="1"
       d="m 104.775,293.45833 h 140 v -140 h -140 z m 0,0"
       id="path49"
       style="stroke-width:1.6463;stroke:none" />
    <path
       fill-rule="nonzero"
       fill="#ffffff"
       fill-opacity="1"
       d="m 210.02258,171.01463 -0.94533,-2.33442 -0.93889,2.33442 c -0.9325,-1.43412 -2.418,-1.67847 -2.418,-1.67847 0.39854,0.3346 0.79096,0.81672 1.1061,1.40192 0.22494,0.4242 0.40507,0.9325 0.49518,1.33117 0.4242,-0.1092 1.07395,-0.25713 1.75561,-0.25713 0.6881,0 1.31834,0.12226 1.77493,0.23146 0.0901,-0.40506 0.25713,-0.88102 0.4823,-1.30545 0.315,-0.58521 0.70742,-1.06751 1.10609,-1.40192 0,0 -1.48549,0.24453 -2.41799,1.67846 m 15.48555,14.97105 c -0.14793,0.2702 -0.38594,0.46947 -0.68166,0.55949 -0.29587,0.0901 -0.61097,0.0644 -0.88103,-0.0835 -0.15446,-0.077 -0.28933,-0.19927 -0.39853,-0.35374 l -0.19274,-0.2702 c -1.31833,2.50806 -4.66883,4.50807 -8.97748,4.48875 -0.19927,0 -0.39854,-0.005 -0.60452,-0.0187 l -0.47587,-0.0187 -0.0775,-0.69454 -0.0579,-0.64951 0.90678,0.0513 c 2.73953,0.0513 6.70099,-1.11253 8.5209,-3.71706 l -0.43727,0.0327 c -0.21886,0.0187 -0.43726,-0.028 -0.63019,-0.1288 -0.2702,-0.1414 -0.4759,-0.3794 -0.56592,-0.67522 -0.0901,-0.29587 -0.0579,-0.60453 0.0835,-0.88103 0.29587,-0.55948 0.9968,-0.77817 1.56269,-0.4759 0.0709,0.0327 0.13486,0.077 0.19926,0.1288 l 0.43727,0.3668 -0.0901,-0.56593 c -0.0373,-0.25714 0,-0.50158 0.11574,-0.72026 0.29587,-0.55944 0.9968,-0.77812 1.55629,-0.4823 0.27627,0.1414 0.47586,0.38594 0.56593,0.68166 0.0966,0.28934 0.0644,0.60453 -0.0835,0.87463 -0.11574,0.21887 -0.29587,0.39247 -0.52734,0.50158 l -0.5209,0.24453 0.55305,0.16054 c 0.077,0.0187 0.14794,0.0513 0.21887,0.0835 0.2702,0.14793 0.46947,0.38593 0.55949,0.68166 0.0966,0.29587 0.0644,0.60448 -0.077,0.88103 m -15.49199,-12.81672 c 0,0 -0.0467,1.38903 -0.84243,1.38903 -0.73309,0 -0.75885,-1.38903 -0.75885,-1.38903 0,0 0.0835,-0.0467 0.26367,-0.0901 0.18013,-0.0513 0.53377,-0.0513 0.53377,-0.0513 0,0 0.22494,0.3024 0.014,0.88102 0.0467,0.014 0.3024,-0.1092 0.39247,-0.26367 0.0835,-0.14793 0.0966,-0.25713 0.11573,-0.43073 0.005,-0.0709 0.014,-0.11574 0.014,-0.13487 0.18667,0.0373 0.27021,0.0901 0.27021,0.0901 m -4.02572,17.13825 -0.21233,0.005 c -0.19927,0.005 -0.40507,0.014 -0.60448,0.014 -4.30226,0.0187 -7.65915,-1.98073 -8.97748,-4.48874 l -0.19274,0.2702 c -0.10267,0.15446 -0.238,0.27673 -0.39853,0.35373 -0.2702,0.14793 -0.58521,0.1736 -0.88103,0.0835 -0.28933,-0.0901 -0.53377,-0.28933 -0.67527,-0.55948 -0.14793,-0.27627 -0.1736,-0.58521 -0.0835,-0.88103 0.0901,-0.29587 0.28933,-0.53377 0.56593,-0.68166 0.0709,-0.0327 0.1414,-0.0644 0.21887,-0.0835 l 0.55305,-0.16054 -0.5209,-0.24453 c -0.23147,-0.1092 -0.41813,-0.2828 -0.53378,-0.50162 -0.1414,-0.2702 -0.1736,-0.58521 -0.0835,-0.87459 0.0966,-0.29586 0.29587,-0.54021 0.56593,-0.68171 0.56593,-0.29586 1.26047,-0.077 1.56269,0.48235 0.11573,0.21887 0.15446,0.46294 0.11573,0.72026 l -0.0901,0.56593 0.43727,-0.3668 c 0.0644,-0.0513 0.12833,-0.0966 0.19927,-0.1288 0.55949,-0.30241 1.26047,-0.0835 1.55629,0.48234 0.14793,0.2702 0.1736,0.57877 0.0835,0.87459 -0.0901,0.29586 -0.28933,0.53377 -0.56592,0.67522 -0.19274,0.10313 -0.40507,0.14793 -0.63024,0.1288 l -0.43074,-0.0327 c 1.81348,2.61092 5.77489,3.76849 8.51446,3.72346 l 0.19274,-0.005 c 0,0 0.12833,0.71382 0.2506,1.1061 z m 28.86815,-5.42763 c -0.4564,0.028 -1.45334,0.077 -2.19936,0.0835 -1.52409,0 -3.19612,-0.26367 -4.40511,-0.55949 0.014,-0.0644 0.0187,-0.13486 0.0187,-0.2058 0,-0.52733 -0.32807,-0.9646 -0.79739,-1.14469 0.56593,-0.11573 0.9968,-0.61091 0.9968,-1.20256 0,-0.30846 -0.11573,-0.5852 -0.3024,-0.79744 0.41813,-0.0467 0.88742,-0.1288 1.43407,-0.30847 0.94533,-0.30846 1.4148,-0.55305 1.89066,-0.82959 1.20256,-0.70099 1.85211,-1.76849 2.09002,-2.23796 0.0467,-0.0835 -0.0373,-0.18013 -0.1288,-0.15447 -0.43727,0.14794 -1.38264,0.45641 -2.10934,0.64951 -1.12537,0.30847 -2.3794,0.47591 -3.46623,0.55305 -0.23146,-0.2702 -0.57236,-0.43727 -0.95821,-0.43727 -0.0187,0 -0.0467,0 -0.0644,0.005 0.32807,-0.22493 0.54661,-0.59808 0.54661,-1.01608 0,-0.68166 -0.55949,-1.23471 -1.24759,-1.23471 -0.0327,0 -0.0513,0.005 -0.077,0.005 0.50802,-0.18013 1.29263,-0.49514 1.9357,-0.86814 0.5466,-0.315 0.9646,-0.63024 1.19611,-0.86819 0.49518,-0.50158 0.77817,-1.1061 0.91962,-1.47267 0.0373,-0.10267 -0.0835,-0.19273 -0.16707,-0.12227 -0.28933,0.21234 -0.75245,0.54661 -1.17689,0.77173 -1.09322,0.57233 -2.98392,1.11893 -3.9678,1.36977 -1.56917,0.40507 -3.23476,0.61735 -3.81352,1.4791 -0.47591,0.70738 0.077,1.81348 0.23147,2.19937 0.0327,0.077 0.10266,0.2828 0.1092,0.30846 0.21233,0.64307 0.21886,2.05787 -0.32807,3.21544 -0.96465,1.97429 -2.87458,3.30546 -5.22832,3.48555 -1.78132,0.1414 -2.14789,-0.0709 -2.50802,-0.18667 0.005,-0.0373 0,-1.42763 -0.12226,-3.27975 0.3668,-0.1736 0.71386,-0.3794 1.04823,-0.61091 0.3472,0.16707 0.91966,0.38593 1.56273,0.38593 0.0373,0 0.077,-0.005 0.12227,-0.005 1.08682,-0.0467 1.95501,-0.7267 1.96145,-0.73314 l 0.0373,-0.0327 -0.0373,-0.028 c -0.014,-0.005 -0.86819,-0.56592 -1.90354,-0.56592 -0.0373,0 -0.077,0 -0.11573,0 -0.1736,0.005 -0.34067,0.0327 -0.49518,0.0644 0.79744,-0.75885 1.46622,-1.66559 1.94857,-2.68167 0.1092,0.077 0.2506,0.1092 0.40507,0.0835 0.19926,-0.0373 0.3668,-0.19927 0.4116,-0.39854 0.0644,-0.30847 -0.14793,-0.5852 -0.43074,-0.63023 0.161,-0.48231 0.28934,-0.97749 0.37287,-1.49194 0.39854,-0.0901 1.0354,-0.28934 1.55629,-0.73953 0.82955,-0.70742 1.08683,-1.77493 1.09327,-1.78781 l 0.005,-0.0513 -0.0513,0.005 c -0.005,0 -1.1061,0.0966 -1.92925,0.80389 -0.22494,0.19273 -0.4116,0.4116 -0.5531,0.63023 0,-0.1288 0.005,-0.25106 0.005,-0.3794 0,-1.65914 -0.4438,-3.24115 -1.23476,-4.61092 0.23147,-0.3346 0.54661,-0.90678 0.63024,-1.582 0.12226,-1.08038 -0.4116,-2.0386 -0.41814,-2.05143 l -0.028,-0.0467 -0.0327,0.0373 c -0.014,0.005 -0.75241,0.82315 -0.87463,1.90354 -0.0327,0.23147 -0.0233,0.4564 0,0.67522 -0.75241,-0.9646 -1.69774,-1.76849 -2.78457,-2.35369 -0.24453,-0.29587 -0.59164,-0.63023 -1.03535,-0.86814 -0.59164,-0.30847 -1.22188,-0.37287 -1.64631,-0.37287 -0.2506,0 -0.4116,0.028 -0.41814,0.028 l -0.0513,0.005 0.0233,0.0467 c 0,0.014 0.49519,0.99681 1.45984,1.49843 0.50801,0.2702 1.05467,0.35373 1.46622,0.3668 0.92606,0.52734 1.73633,1.22827 2.39228,2.05143 -0.19273,-0.11573 -0.40507,-0.2184 -0.63663,-0.29587 -0.30893,-0.0966 -0.64311,-0.14793 -0.9968,-0.14793 -0.61736,0 -1.09326,0.15446 -1.0997,0.15446 l -0.0513,0.0187 0.0327,0.0467 c 0.005,0.005 0.66234,0.88746 1.69774,1.22188 0.3024,0.0966 0.63667,0.14793 0.9968,0.14793 0.30847,0 0.57877,-0.0373 0.77813,-0.077 0.6881,1.21539 1.08682,2.61092 1.10609,4.06431 -0.0467,-0.12227 -0.10266,-0.24454 -0.1736,-0.3668 -0.52733,-0.94533 -1.53053,-1.40836 -1.53697,-1.4148 l -0.0513,-0.0187 -0.005,0.0513 c 0,0.014 -0.12227,1.1061 0.4116,2.04499 0.35374,0.63024 0.90674,1.04184 1.24759,1.24759 -0.32807,1.97429 -1.33117,3.71062 -2.75885,4.95822 0.12227,-0.25714 0.22494,-0.55305 0.27674,-0.87459 0.16706,-1.07394 -0.32807,-2.05787 -0.3346,-2.06431 l -0.028,-0.0467 -0.0327,0.0373 c -0.014,0.005 -0.78456,0.791 -0.95177,1.85855 -0.1092,0.70094 0.0644,1.36333 0.19927,1.74273 -0.19927,0.1288 -0.39854,0.25714 -0.61736,0.37287 -0.19273,-2.49518 -0.60452,-5.53697 -1.44051,-7.31834 -0.0327,-0.0709 -0.0709,-0.1414 -0.10314,-0.2058 0.53373,-0.014 0.94533,-0.28934 1.17685,-0.48879 0.0579,-0.0513 0.014,-0.14793 -0.0644,-0.13487 -0.2702,0.0467 -0.75241,0.0835 -1.40836,-0.0327 -0.0233,-0.005 -0.0513,-0.005 -0.077,-0.0187 0.0513,0 0.10313,-0.005 0.15447,-0.005 0.63023,-0.077 1.04179,-0.50806 1.24115,-0.78461 0.0467,-0.0644 -0.0233,-0.14793 -0.0966,-0.11573 -0.2506,0.1092 -0.70742,0.2506 -1.37621,0.2828 -0.38593,0.028 -0.71381,-0.0579 -1.36332,-0.18013 -0.46947,-0.0966 -1.0354,-0.0644 -1.45339,-0.0187 -0.3024,0.028 -0.56593,0.077 -0.78457,0.12227 -0.18013,0.0467 -0.35373,0.10313 -0.52094,0.18013 -0.30847,0.005 -1.71057,0.0579 -2.00639,0.3024 -0.32807,0.26367 0.19926,1.46623 0.48874,2.02572 0.11573,-0.28934 0.41813,-0.99676 0.77168,-0.99676 0.0513,0 0.10267,0.0187 0.15447,0.0513 0.11573,0.0709 0.18667,0.16054 0.26367,0.26367 0.22493,0.28933 0.50157,0.64951 2.22507,0.82316 0.18014,0.0187 0.57876,0.1092 0.76524,0.28933 0.0901,0.0901 0.18667,0.39854 0.19274,0.52734 0,0.14793 -0.1288,0.32153 -0.2702,0.32153 -0.077,0 -0.18014,-0.028 -0.315,-0.0579 -0.19927,-0.0513 -0.44381,-0.1092 -0.72665,-0.1092 -0.028,0 -0.0513,0 -0.077,0 -0.81028,0.0327 -1.34405,0.3668 -1.54342,0.55949 0.32154,-0.13487 0.81028,-0.12227 1.3119,-0.12227 0.0644,0.55949 -0.0709,0.9003 -0.16706,1.54981 -0.16054,0.99036 -0.46294,1.74921 -0.46294,1.74921 0,0 0.5209,-0.4242 0.86175,-1.05467 0,0 -0.34067,1.56273 -0.81672,2.66239 -0.0901,0.2058 -0.2058,0.41814 -0.3346,0.63024 -0.87458,-0.22494 -1.6849,-0.60452 -2.41799,-1.09327 0.13486,-0.3794 0.3024,-1.02891 0.19273,-1.71701 -0.16707,-1.06755 -0.93889,-1.85211 -0.94533,-1.85855 l -0.0373,-0.0373 -0.0187,0.0467 c -0.005,0.005 -0.50806,0.99036 -0.34067,2.06431 0.0513,0.29587 0.1414,0.56593 0.2506,0.80383 -1.39552,-1.24115 -2.36656,-2.9646 -2.68815,-4.91317 0.34067,-0.21234 0.86819,-0.61736 1.20261,-1.22188 0.53373,-0.93889 0.41813,-2.03216 0.4116,-2.04499 l -0.005,-0.0513 -0.0467,0.0187 c -0.014,0.005 -1.00964,0.46947 -1.54342,1.4148 -0.0467,0.0835 -0.0901,0.1736 -0.12833,0.25714 0.0467,-1.4148 0.43074,-2.76529 1.0997,-3.94858 0.18667,0.0373 0.45034,0.0709 0.74597,0.0709 0.35374,0 0.68811,-0.0513 0.99681,-0.14794 1.03535,-0.3346 1.6913,-1.21544 1.6913,-1.22188 l 0.0327,-0.0467 -0.0467,-0.0187 c -0.005,0 -0.48235,-0.15447 -1.09971,-0.15447 -0.36027,0 -0.69454,0.0513 -0.9968,0.14794 -0.2058,0.0709 -0.39854,0.161 -0.57232,0.25713 0.64951,-0.81027 1.45339,-1.49194 2.37301,-2.01283 0.40506,-0.0187 0.92601,-0.1092 1.42119,-0.3668 0.96465,-0.50163 1.45339,-1.48555 1.45983,-1.49838 l 0.0233,-0.0467 -0.0513,-0.005 c -0.005,0 -0.16707,-0.028 -0.41814,-0.028 -0.4242,0 -1.06111,0.0644 -1.64631,0.37287 -0.46942,0.24454 -0.82315,0.60448 -1.0675,0.90674 -1.08683,0.59808 -2.01932,1.40836 -2.75885,2.36657 0.0233,-0.23147 0.0327,-0.47586 0.005,-0.7267 -0.1288,-1.08038 -0.86814,-1.8971 -0.87458,-1.90354 l -0.0373,-0.0373 -0.0233,0.0467 c 0,0.014 -0.53377,0.97105 -0.4116,2.05143 0.0835,0.69454 0.41814,1.27975 0.64956,1.60772 -0.77817,1.36337 -1.21544,2.9325 -1.21544,4.58521 0,0.14793 0.005,0.3024 0.014,0.45033 -0.15447,-0.24453 -0.3472,-0.48874 -0.59808,-0.70098 -0.82316,-0.70738 -1.92282,-0.80384 -1.9357,-0.80384 l -0.0513,-0.005 0.014,0.0513 c 0.005,0.014 0.26367,1.08038 1.08683,1.7878 0.55304,0.46947 1.21543,0.66879 1.60771,0.74597 0.0835,0.50807 0.20581,1.0032 0.37287,1.47911 -0.0835,0.005 -0.16706,0.0327 -0.25713,0.10267 -0.1414,0.10313 -0.238,0.26366 -0.23147,0.43726 0.014,0.28281 0.24454,0.50807 0.52734,0.50807 0.12226,0 0.24453,-0.0513 0.3346,-0.1288 0.48874,1.03535 1.15757,1.9614 1.97428,2.72669 -0.1736,-0.0373 -0.36026,-0.0644 -0.55309,-0.077 -0.0467,0 -0.0835,0 -0.12227,0 -1.02895,0 -1.8907,0.55949 -1.89714,0.56593 l -0.0373,0.028 0.0373,0.0327 c 0.005,0.005 0.87463,0.6881 1.96145,0.73313 0.0373,0 0.077,0.005 0.12227,0.005 0.65595,0 1.24759,-0.23147 1.582,-0.39853 0.75241,0.51445 1.5884,0.91317 2.47586,1.1704 -0.27626,0.40507 -0.51445,0.70094 -0.51445,0.70094 0,0 0.21233,-0.0709 0.50162,-0.19274 0.28934,-0.1288 0.52734,-0.32807 0.52734,-0.32807 0,0 -0.46947,1.06755 -0.46947,1.06755 -0.0709,0.14794 -0.4564,0.72026 -0.81672,1.5241 -0.43073,0.11573 -1.08038,0.24453 -2.36013,0.14793 -2.35369,-0.18013 -4.26367,-1.51126 -5.23471,-3.48555 -0.54021,-1.15757 -0.53377,-2.57232 -0.32153,-3.21543 0.005,-0.028 0.077,-0.23147 0.10266,-0.30847 0.16054,-0.38594 0.71382,-1.49199 0.238,-2.19936 -0.5852,-0.86175 -2.25078,-1.07399 -3.81991,-1.47911 -0.97753,-0.25107 -2.87463,-0.79744 -3.96141,-1.36976 -0.43073,-0.22494 -0.8939,-0.55949 -1.17689,-0.77173 -0.0901,-0.0709 -0.21233,0.0187 -0.16707,0.12226 0.13487,0.36681 0.41814,0.97109 0.91962,1.47272 0.23147,0.238 0.64951,0.55305 1.19616,0.86814 0.64307,0.37287 1.42764,0.6881 1.9357,0.86819 -0.0233,0 -0.0513,-0.005 -0.0775,-0.005 -0.6881,0 -1.24754,0.55305 -1.24754,1.23471 0,0.41814 0.21233,0.79101 0.54661,1.01608 -0.028,-0.005 -0.0467,-0.005 -0.0709,-0.005 -0.38593,0 -0.72025,0.16707 -0.95177,0.43727 -1.08682,-0.077 -2.34085,-0.2506 -3.46622,-0.55305 -0.7267,-0.19273 -1.67203,-0.50157 -2.10935,-0.64951 -0.0901,-0.028 -0.1736,0.0709 -0.1288,0.15447 0.23801,0.46947 0.88747,1.53697 2.09003,2.23796 0.4759,0.27673 0.94533,0.52089 1.8907,0.82959 0.54661,0.18014 1.01608,0.26367 1.43407,0.30847 -0.18666,0.21234 -0.3024,0.48874 -0.3024,0.79744 0,0.59165 0.43074,1.08683 0.99681,1.20256 -0.46947,0.18014 -0.80389,0.61736 -0.80389,1.14469 0,0.0709 0.014,0.1414 0.028,0.2058 -1.20899,0.29587 -2.88107,0.55949 -4.40516,0.55949 -0.75241,-0.005 -1.74277,-0.0579 -2.19936,-0.0835 -0.0966,-0.005 -0.15447,0.1092 -0.0901,0.18013 0.35374,0.39247 1.26043,1.26047 2.60448,1.62704 0.52733,0.1414 1.04823,0.25714 2.03859,0.30847 1.23471,0.0709 2.01288,-0.19273 2.68167,-0.29587 0,0 0.014,0 0.0513,-0.005 0.11573,0.55944 0.61736,0.98392 1.22827,0.98392 0.0513,0 0.1092,-0.014 0.161,-0.0187 -0.19927,0.2184 -0.32153,0.50162 -0.32153,0.81672 0,0.21887 0.0644,0.41813 0.161,0.59164 -0.1736,0.11573 -0.35374,0.23147 -0.53378,0.34067 -1.06106,0.64951 -2.94533,1.55624 -4.72026,2.03215 -0.72664,0.18667 -1.69773,0.39247 -2.14788,0.48874 -0.0966,0.0187 -0.12227,0.1414 -0.0373,0.19927 0.43727,0.2828 1.53698,0.88747 2.93245,0.89386 0.55305,0 1.07395,-0.028 2.04504,-0.23147 1.21544,-0.2506 1.90354,-0.70098 2.52089,-0.97753 -0.0187,0.0187 0.95821,-0.47586 1.35694,-0.66234 0.0709,-0.0327 0.14793,-0.0709 0.22493,-0.10314 0.23147,0.27021 0.57237,0.45034 0.96465,0.45034 0.23147,0 0.45034,-0.0644 0.63668,-0.1736 -0.0467,0.12227 -0.0709,0.25107 -0.0709,0.39247 0,0.48874 0.28934,0.90678 0.71382,1.10614 -0.23147,0.45034 -0.46294,0.91957 -0.71382,1.3826 -0.59164,1.08682 -1.76848,2.81672 -3.07399,4.10934 -0.52729,0.52734 -1.26686,1.18973 -1.61411,1.49838 -0.0709,0.0644 -0.0233,0.18013 0.0709,0.18667 0.52734,0.0327 1.77493,0.005 2.99037,-0.68811 0.47586,-0.2702 0.91961,-0.55309 1.65914,-1.21543 0.91962,-0.82316 1.29263,-1.56274 1.68491,-2.1029 -0.005,0.028 0.59164,-0.89391 0.84243,-1.25404 0.18013,-0.26366 0.37287,-0.52089 0.57237,-0.77812 0.0709,0.005 0.1414,0.0187 0.21233,0.0187 0.43727,0 0.81672,-0.2184 1.04179,-0.54661 0.0327,0.64951 0.57881,1.17684 1.24759,1.17684 0.53378,0 0.99037,-0.32806 1.17041,-0.791 0.15446,0.50806 0.62384,0.88102 1.18972,0.88102 0.63024,0 1.14469,-0.4564 1.23476,-1.04823 0.1414,0.53378 0.6238,0.9325 1.20256,0.9325 -0.35374,0.5852 -0.74597,1.18329 -1.17685,1.77493 -0.93249,1.27974 -1.92281,2.39872 -2.88746,3.29902 -0.0901,0.0835 0,0.22493 0.1092,0.18013 0.4564,-0.16707 1.0354,-0.38593 1.33122,-0.5531 0.19927,-0.11573 0.39247,-0.23146 0.57232,-0.36026 l -3.35693,4.77173 -2.95177,-2.21864 c -0.16054,-0.0901 -0.3346,-0.15446 -0.52085,-0.18666 -0.72026,-0.0966 -1.43412,0.43073 -1.48555,1.08682 -0.014,0.16053 0.014,0.315 0.0579,0.4564 0.0579,-0.18667 0.15447,-0.3472 0.3024,-0.4823 0.26367,-0.22493 0.63024,-0.29587 1.00324,-0.23147 l -0.38593,0.3794 c 0,0 0.48879,0.48235 1.10614,0.10267 l 2.51446,1.77493 -3.83279,-0.38594 c -0.16707,-0.005 -0.34721,0.0187 -0.51446,0.077 -0.69454,0.23147 -1.08682,1.0354 -0.83604,1.64631 0.0644,0.14141 0.15447,0.27021 0.26367,0.37287 -0.0373,-0.18666 -0.0233,-0.37287 0.0467,-0.55949 0.13487,-0.32806 0.43727,-0.55948 0.81027,-0.66882 l -0.1288,0.4759 c 0,0 0.66239,0.16707 1.00325,-0.46946 l 2.98868,0.3024 -1.96145,2.59803 c -0.10314,0.15447 -0.18014,0.32807 -0.21887,0.5145 -0.154,0.70738 0.34067,1.45979 0.9968,1.55625 0.15447,0.028 0.30847,0.014 0.45641,-0.028 -0.18014,-0.0644 -0.34067,-0.1736 -0.45641,-0.3346 -0.22493,-0.29587 -0.2702,-0.69454 -0.15446,-1.08039 l 0.40507,0.39854 c 0,0 0.47586,-0.48874 0.10266,-1.0997 l 1.77493,-2.43083 2.51445,0.28933 c 0.19927,0.69454 0.88103,0.67522 0.88103,0.67522 l -0.0187,-0.53373 c 0.24454,0.0709 0.4564,0.19927 0.59804,0.39854 0.12226,0.161 0.18013,0.34067 0.19273,0.53377 0.077,-0.1288 0.1288,-0.4242 0.14793,-0.57876 0.0901,-0.59808 -0.34066,-1.13185 -0.97109,-1.26047 l -2.97748,-0.3024 3.66559,-5.46623 c -0.0579,0.26367 -0.10267,0.54022 -0.11574,0.79101 -0.0233,0.60452 0.0709,1.17684 0.14794,1.5177 0.0233,0.10266 0.16053,0.11573 0.2058,0.028 0.55305,-1.17041 1.29258,-2.418 2.19292,-3.65271 0.21887,-0.3024 0.4438,-0.59164 0.66878,-0.87463 0.50806,1.79425 0.77173,3.80708 0.76529,4.55305 0,1.22832 -0.4116,2.88746 -1.44051,4.70742 -0.55949,0.97749 -1.14469,1.29902 -1.45983,1.40192 -0.077,0.028 -0.0901,0.13487 -0.014,0.1736 0.23146,0.11574 0.63667,0.25714 1.1704,0.16054 0.72026,-0.12227 1.36981,-1.06111 1.36981,-1.06111 0,0 -0.86819,2.33441 -2.59808,3.17684 -1.04184,0.50806 -2.06431,0.34067 -2.5852,0.19273 -0.0966,-0.028 -0.16707,0.0966 -0.0901,0.16707 0.4438,0.41814 1.40192,1.12542 2.71382,0.96465 1.3119,-0.15447 2.75885,-1.83279 2.75885,-1.83279 0,0 -0.11574,0.80383 -0.77173,1.97429 -0.25714,0.4564 -0.72026,1.07394 -0.91318,1.32473 -0.0467,0.0579 -0.014,0.1414 0.0644,0.15446 0.1736,0.028 0.4823,0.0187 0.87458,-0.2058 0.27021,-0.16053 0.97105,-0.84887 0.97105,-0.84887 0,0 0.0327,1.02891 0.26367,1.65271 0.12833,0.3346 0.36633,0.6881 0.48234,0.85531 0.0467,0.0579 0.12227,0.0579 0.16054,0 0.12227,-0.16707 0.35373,-0.5209 0.4823,-0.85531 0.238,-0.6238 0.26367,-1.65271 0.26367,-1.65271 0,0 0.70742,0.68811 0.97748,0.84887 0.38594,0.22494 0.70098,0.23147 0.87463,0.2058 0.0709,-0.014 0.10267,-0.0966 0.0579,-0.15446 -0.19274,-0.2506 -0.64951,-0.86815 -0.90674,-1.32473 -0.65595,-1.17046 -0.77173,-1.97429 -0.77173,-1.97429 0,0 1.44051,1.67846 2.75246,1.83279 1.31185,0.16054 2.2765,-0.54661 2.72021,-0.96465 0.0709,-0.0709 0.005,-0.19273 -0.0901,-0.16707 -0.52733,0.14794 -1.54985,0.31501 -2.59164,-0.19273 -1.7235,-0.84243 -2.59164,-3.17684 -2.59164,-3.17684 0,0 0.6495,0.93893 1.36976,1.06111 0.52734,0.0966 0.9325,-0.0467 1.16397,-0.16054 0.0775,-0.0373 0.0709,-0.14793 -0.014,-0.1736 -0.30847,-0.10313 -0.90035,-0.4242 -1.45335,-1.40192 -1.02896,-1.81996 -1.39553,-3.49198 -1.50487,-4.72025 -0.1092,-1.21544 -0.0327,-1.92286 0.26367,-4.86176 l 0.005,-0.014 c 0.315,0.38594 0.63023,0.78457 0.9325,1.209 0.90029,1.23471 1.63987,2.4823 2.19292,3.65276 0.0467,0.0901 0.18013,0.077 0.2058,-0.028 0.077,-0.34067 0.1736,-0.91318 0.14793,-1.51766 -0.005,-0.13486 -0.0233,-0.27673 -0.0467,-0.42466 l 3.36982,5.07399 -2.89391,0.29586 h -0.0327 c -0.30241,0.0709 -0.56593,0.21887 -0.74597,0.44381 -0.19274,0.24453 -0.2828,0.70098 -0.238,1.00319 0.028,0.15447 0.077,0.3024 0.16706,0.44381 l 0.0579,0.10313 0.014,-0.12227 c 0.005,-0.19273 0.0709,-0.36633 0.1736,-0.50806 0.12833,-0.1736 0.315,-0.29587 0.53378,-0.3668 l -0.0187,0.47591 0.005,0.0373 h 0.0373 c 0.0709,0 0.70094,-0.0187 0.90674,-0.67527 l 2.46303,-0.28933 1.74921,2.39228 c -0.36027,0.62379 0.12227,1.12542 0.1288,1.12542 l 0.0233,0.028 0.3794,-0.3794 c 0.0835,0.36026 0.0373,0.72025 -0.161,0.99031 -0.1092,0.1414 -0.25713,0.25107 -0.43727,0.32154 l -0.11573,0.0373 0.11573,0.0327 c 0.10314,0.028 0.20581,0.0373 0.30847,0.0373 0.0513,0 0.1092,-0.005 0.16707,-0.014 0.3024,-0.0467 0.66239,-0.30847 0.83599,-0.55949 0.2058,-0.29587 0.2702,-0.67522 0.19273,-1.04823 -0.0373,-0.18013 -0.11573,-0.3472 -0.21233,-0.49518 l -1.93569,-2.57232 2.8939,-0.29587 c 0.238,0.4242 0.61736,0.48874 0.82955,0.48874 0.12227,0 0.2058,-0.0187 0.2058,-0.028 l 0.0373,-0.005 -0.12226,-0.4438 c 0.3346,0.11574 0.59808,0.3346 0.71381,0.6238 0.0709,0.16706 0.0835,0.3472 0.0513,0.54017 l -0.0187,0.12226 0.0835,-0.0835 c 0.11574,-0.11573 0.2058,-0.2506 0.26367,-0.39247 0.12227,-0.2828 0.0775,-0.72025 -0.0513,-1.0032 -0.14794,-0.32153 -0.43727,-0.57236 -0.80389,-0.69454 -0.15446,-0.0513 -0.315,-0.077 -0.4823,-0.077 -0.005,0 -0.0187,0 -0.0187,0 l -3.71702,0.37287 2.3794,-1.67847 c 0.15447,0.0901 0.315,0.1414 0.47587,0.1414 0.38593,0 0.64311,-0.25106 0.6495,-0.26366 l 0.028,-0.028 -0.35373,-0.35374 c 0.0579,-0.005 0.1092,-0.0187 0.16707,-0.0187 0.2828,0 0.53377,0.0901 0.72669,0.25713 0.13487,0.11573 0.238,0.2702 0.28934,0.46293 l 0.0373,0.1092 0.0373,-0.1092 c 0.0513,-0.15446 0.0709,-0.315 0.0579,-0.46946 -0.0467,-0.61092 -0.64951,-1.13825 -1.31829,-1.13825 -0.0709,0 -0.1414,0 -0.21233,0.014 -0.18014,0.028 -0.35374,0.0901 -0.50802,0.1736 l -2.94538,2.21219 -3.4148,-4.83599 c 0.238,0.16707 0.49519,0.3346 0.75885,0.4823 0.29587,0.16707 0.87463,0.38594 1.33122,0.55305 0.1092,0.0467 0.19927,-0.0966 0.1092,-0.18013 -0.95816,-0.88747 -1.91637,-1.96141 -2.90674,-3.25404 -0.59164,-0.76529 -1.18972,-1.45339 -1.26686,-2.67522 0.2506,0.75241 0.57876,0.97104 1.26042,0.97104 0.56593,0 1.0418,-0.37286 1.19617,-0.88102 0.18013,0.46294 0.63023,0.791 1.16396,0.791 0.67527,0 1.22188,-0.52733 1.24759,-1.17684 0.22494,0.32807 0.61092,0.54661 1.0418,0.54661 0.077,0 0.14793,-0.014 0.21886,-0.0187 0.19927,0.25714 0.39247,0.5145 0.57232,0.77817 0.25107,0.36027 0.84887,1.27975 0.84248,1.25399 0.39854,0.54021 0.76524,1.27974 1.68486,2.1029 0.73953,0.66239 1.18972,0.94537 1.65919,1.21543 1.21544,0.69455 2.46943,0.72026 2.99676,0.68811 0.0901,-0.005 0.13487,-0.12227 0.0644,-0.18667 -0.3472,-0.30893 -1.08678,-0.97104 -1.61411,-1.49838 -1.30551,-1.29262 -2.48235,-3.02252 -3.07395,-4.10934 -0.25106,-0.46294 -0.48234,-0.9325 -0.71386,-1.38265 0.4242,-0.19926 0.71386,-0.61735 0.71386,-1.10609 0,-0.1414 -0.0327,-0.2702 -0.0709,-0.39247 0.18667,0.1092 0.39854,0.1736 0.63663,0.1736 0.38593,0 0.73314,-0.18013 0.96465,-0.45034 0.077,0.0327 0.15447,0.0709 0.23147,0.10314 0.39247,0.18667 1.36976,0.68166 1.35049,0.66239 0.62379,0.27673 1.30546,0.72669 2.51445,0.97748 0.97749,0.2058 1.50482,0.23147 2.05143,0.23147 1.39553,-0.005 2.48874,-0.61092 2.9325,-0.8939 0.0835,-0.0579 0.0579,-0.18014 -0.0373,-0.19927 -0.45034,-0.0966 -1.4212,-0.3024 -2.14145,-0.48874 -1.78137,-0.47587 -3.66559,-1.3826 -4.7267,-2.03216 -0.18013,-0.1092 -0.36027,-0.22493 -0.53377,-0.34067 0.0966,-0.1736 0.16053,-0.3794 0.16053,-0.59164 0,-0.315 -0.12833,-0.59808 -0.32153,-0.81671 0.0513,0.005 0.10313,0.0187 0.161,0.0187 0.60447,0 1.11253,-0.4242 1.22827,-0.98392 0.0327,0.005 0.0579,0.005 0.0513,0.005 0.66883,0.10266 1.44695,0.36633 2.68166,0.29586 0.99681,-0.0513 1.51126,-0.16706 2.0386,-0.30846 1.35049,-0.36681 2.25083,-1.23472 2.60452,-1.627 0.0644,-0.0709 0.005,-0.18666 -0.0901,-0.18013 m -29.4855,-8.93889 c -0.0966,0.014 -0.19274,0.028 -0.27674,0.028 -0.70737,0 -0.93894,-0.51446 -1.00964,-0.7974 -0.1092,0.43727 -0.0901,0.78456 0.0579,1.01608 0.11573,0.18013 0.30847,0.28933 0.55305,0.32153 0.077,0.005 0.161,0.014 0.24453,0.014 0.57877,0 1.18329,-0.238 1.76205,-0.46947 0.2828,-0.1092 0.57237,-0.22493 0.85531,-0.30846 0.52734,-0.16054 0.94533,-0.23801 1.24115,-0.28281 -0.13487,-0.005 -0.26367,-0.005 -0.39853,-0.005 -0.88103,0 -1.50482,0.14793 -2.1093,0.29587 -0.28933,0.0644 -0.59808,0.1414 -0.91961,0.19273"
       id="path50"
       style="stroke-width:1.6463;stroke:none" />
    <path
       fill-rule="nonzero"
       fill="#ffffff"
       fill-opacity="1"
       d="m 180.95507,258.80881 v 20.31515 h 11.45339 l 0.14794,-2.61741 h -8.50807 v -17.69774 z m -13.27331,18.05787 c -3.86495,0 -5.6206,-3.47906 -5.6206,-7.82635 0,-4.37297 1.63348,-8.00001 5.6206,-8.00001 3.96141,0 5.59484,3.6592 5.59484,7.97429 0,4.30871 -1.75561,7.85207 -5.59484,7.85207 m 0,2.58525 c 5.59484,0 8.86814,-4.25083 8.86814,-10.46947 0,-5.94857 -3.18324,-10.50162 -8.86814,-10.50162 -5.59484,0 -8.89391,4.48874 -8.89391,10.59164 0,5.94858 3.29907,10.37945 8.89391,10.37945 m -22.43088,-18.14794 c 0.56592,-0.0579 1.33761,-0.11573 2.37944,-0.11573 2.79745,0 4.37297,0.82955 4.37297,3.44695 0,2.20576 -1.54337,3.54341 -3.98712,3.54341 h -2.76529 z m 9.93569,3.12542 c 0,-3.71706 -2.43727,-5.71062 -7.40836,-5.71062 -1.99356,0 -4.01283,0.0901 -5.5884,0.2702 v 20.13506 h 3.06107 v -8.50806 h 3.15113 l 4.10934,8.50806 h 3.36332 l -4.64307,-9.27975 v -0.0579 c 2.32154,-0.65595 3.95497,-2.61736 3.95497,-5.35689 m -18.47587,-5.6206 h -3.09326 v 20.31515 h 3.09326 z m -15.14469,2.64951 v 17.66564 h 3.12537 v -17.66564 h 5.447 l 0.18013,-2.64951 h -14.19292 l -0.14794,2.64951 z m 0,0"
       id="path51"
       style="stroke-width:1.6463;fill:#ffffff;stroke:none" />
    <path
       fill-rule="nonzero"
       fill="#ffffff"
       fill-opacity="1"
       d="m 178.29912,235.08535 c 4.61091,0 6.87458,2.88102 6.87458,7.49838 0,5.44051 -2.61735,7.97429 -7.67842,7.97429 -0.71382,0 -1.45339,0 -2.01932,-0.0644 v -15.29258 c 0.74597,-0.0579 1.69779,-0.11574 2.82316,-0.11574 m -5.91638,-2.26367 v 20.11574 c 1.39548,0.0901 3.0032,0.14794 4.90674,0.14794 7.53053,0 11.18973,-3.8971 11.18973,-10.59165 0,-6.04503 -3.33766,-9.93569 -10.26367,-9.93569 -2.08363,0 -4.07719,0.11573 -5.8328,0.26366 m -5.32478,20.14146 v -20.32154 h -2.94533 v 8.99036 l 0.14793,6.68811 h -0.0901 c -2.35369,-4.93889 -5.71058,-10.50163 -8.68806,-15.67847 h -3.51126 v 20.32154 h 2.94533 v -9.22184 l -0.12227,-6.63667 h 0.0901 c 2.02571,4.13505 4.93889,8.92606 8.84243,15.85851 z m -26.72026,-17.67199 0.83603,2.97749 1.81348,6.39228 h -5.35689 l 1.81352,-6.39228 0.83599,-2.97749 z m 1.96145,-2.67527 h -3.86499 l -6.45659,20.3473 h 3.27335 c 0.18013,-0.6817 1.63338,-5.14469 1.78132,-5.83279 h 6.54661 l 1.81352,5.83279 h 3.36332 z m -24.18653,0.028 v 20.32154 h 11.45339 l 0.15447,-2.61735 h -8.51446 v -17.70419 z m 0,0"
       id="path52"
       style="stroke-width:1.6463;stroke:none" />
  </g>
</svg>
